<svg width="10" height="10" fill="none" xmlns="http://www.w3.org/2000/svg"><g opacity=".5"><path d="M5.009 0a5.016 5.016 0 0 0-3.542 1.464A5 5 0 0 0 0 5h1.192a3.804 3.804 0 0 1 2.356-3.52c.463-.191.96-.29 1.46-.29V0Z" fill="#4a40c6"/><path d="M.17 3.706a4.992 4.992 0 0 0 2.063 5.456 5.014 5.014 0 0 0 7.176-1.773c.332-.61.533-1.282.591-1.974l-1.188-.099a3.805 3.805 0 0 1-1.47 2.7 3.82 3.82 0 0 1-6.105-2.434 3.804 3.804 0 0 1 .085-1.568L.171 3.706Z" fill="url(#a)"/></g><defs><radialGradient id="a" cx="0" cy="0" r="1" gradientUnits="userSpaceOnUse" gradientTransform="rotate(167.039 4.773 2.644) scale(8.65745 45.9013)"><stop offset=".047" stop-color="#4a40c6" stop-opacity="0"/><stop offset="1" stop-color="#4a40c6"/></radialGradient></defs></svg>