<svg width="10" height="10" viewBox="0 0 10 10" fill="none" xmlns="http://www.w3.org/2000/svg">
<g opacity="0.5">
<path d="M5.00864 0C4.3509 2.87013e-08 3.69959 0.129329 3.09192 0.380602C2.48424 0.631876 1.93209 1.00017 1.467 1.46447C1.0019 1.92876 0.632968 2.47996 0.38126 3.08658C0.129552 3.69321 1.28585e-07 4.34339 1.86087e-07 5H1.19214C1.19214 4.49967 1.29086 4.00425 1.48265 3.54201C1.67445 3.07977 1.95557 2.65977 2.30997 2.30598C2.66436 1.9522 3.08509 1.67156 3.54813 1.4801C4.01117 1.28863 4.50745 1.19008 5.00864 1.19008V0Z" fill="#4a40c6"/>
<path d="M0.170665 3.7059C-0.00932249 4.37647 -0.0474569 5.0771 0.0586906 5.76319C0.164838 6.44928 0.412941 7.10578 0.787201 7.69089C1.16146 8.276 1.65367 8.7769 2.2325 9.16168C2.81132 9.54647 3.46407 9.80671 4.14917 9.92584C4.83428 10.045 5.53673 10.0204 6.21179 9.8536C6.88684 9.68684 7.51972 9.38157 8.07011 8.95724C8.6205 8.53291 9.07634 7.99881 9.4086 7.38895C9.74087 6.7791 9.94228 6.10686 10 5.41503L8.81197 5.31625C8.76799 5.84341 8.61452 6.35564 8.36134 6.82034C8.10816 7.28504 7.76081 7.69202 7.34143 8.01535C6.92204 8.33868 6.4398 8.57129 5.92542 8.69836C5.41103 8.82543 4.87578 8.84418 4.35374 8.7534C3.8317 8.66263 3.33432 8.46433 2.89327 8.17113C2.45221 7.87793 2.07715 7.49626 1.79197 7.05041C1.5068 6.60457 1.31774 6.10432 1.23686 5.58154C1.15598 5.05875 1.18504 4.52488 1.32219 4.01392L0.170665 3.7059Z" fill="url(#paint0_radial_1821_14958)"/>
</g>
<defs>
<radialGradient id="paint0_radial_1821_14958" cx="0" cy="0" r="1" gradientUnits="userSpaceOnUse" gradientTransform="translate(10.0173 4.15049) rotate(167.039) scale(8.65745 45.9013)">
<stop offset="0.046691" stop-color="#4a40c6" stop-opacity="0"/>
<stop offset="1" stop-color="#4a40c6"/>
</radialGradient>
</defs>
</svg>
