<svg width="28" height="28" viewBox="0 0 28 28" fill="none" xmlns="http://www.w3.org/2000/svg">
<circle cx="14" cy="14" r="11.35" stroke="#58BD7D" stroke-width="1.3"/>
<path d="M11.7488 17.2676L8.44071 13.873C8.28242 13.7106 8.06775 13.6194 7.84393 13.6194C7.6201 13.6194 7.40544 13.7106 7.24714 13.873C7.0889 14.0354 7 14.2557 7 14.4854C7 14.7151 7.0889 14.9353 7.24714 15.0978L10.5552 18.4924C10.712 18.6533 10.8981 18.781 11.103 18.8681C11.3078 18.9552 11.5274 19 11.7492 19C11.9709 19 12.1905 18.9552 12.3954 18.8681C12.6003 18.781 12.7864 18.6533 12.9432 18.4924L20.7529 10.4784C20.9111 10.316 21 10.0957 21 9.866C21 9.63632 20.9111 9.41604 20.7529 9.25361C20.5946 9.09122 20.3799 9 20.1561 9C19.9322 9 19.7176 9.09122 19.5593 9.25361L11.7488 17.2676Z" fill="#58BD7D"/>
</svg>
