<svg width="32" height="32" viewBox="0 0 32 32" fill="none" xmlns="http://www.w3.org/2000/svg">
<path fill-rule="evenodd" clip-rule="evenodd" d="M13.7239 0.687536C15.4092 -0.229179 17.4443 -0.229179 19.1295 0.687536L28.8998 6.00205C30.7202 6.99226 31.8534 8.89867 31.8534 10.971V21.029C31.8534 23.1013 30.7202 25.0077 28.8998 25.998L19.1295 31.3125C17.4443 32.2292 15.4092 32.2292 13.7239 31.3125L3.95362 25.998C2.13321 25.0077 1 23.1013 1 21.029L1 10.971C1 8.89867 2.1332 6.99226 3.95362 6.00205L13.7239 0.687536Z" fill="#26A17B"/>
<g clip-path="url(#clip0_410_154)">
<path d="M16.5 30C24.232 30 30.5 23.732 30.5 16C30.5 8.26801 24.232 2 16.5 2C8.76801 2 2.5 8.26801 2.5 16C2.5 23.732 8.76801 30 16.5 30Z" fill="#26A17B"/>
<path fill-rule="evenodd" clip-rule="evenodd" d="M17.9193 17.3685V17.3668C17.823 17.3738 17.3269 17.4035 16.22 17.4035C15.3362 17.4035 14.7141 17.3773 14.4954 17.3668V17.3694C11.0934 17.2198 8.55412 16.6274 8.55412 15.9186C8.55412 15.2108 11.0934 14.6184 14.4954 14.4661V16.7796C14.7176 16.7954 15.3546 16.833 16.2349 16.833C17.291 16.833 17.8204 16.7893 17.9193 16.7805V14.4679C21.3143 14.6192 23.8474 15.2116 23.8474 15.9186C23.8474 16.6274 21.3143 17.218 17.9193 17.3685ZM17.9193 14.2273V12.157H22.6565V9H9.75813V12.157H14.4954V14.2264C10.6454 14.4031 7.75 15.1661 7.75 16.0796C7.75 16.9931 10.6454 17.7552 14.4954 17.9329V24.5671H17.9193V17.9311C21.7631 17.7544 24.6515 16.9922 24.6515 16.0796C24.6515 15.167 21.7631 14.4049 17.9193 14.2273Z" fill="white"/>
</g>
<defs>
<clipPath id="clip0_410_154">
<rect width="28" height="28" fill="white" transform="translate(2.5 2)"/>
</clipPath>
</defs>
</svg>
