<svg width="10" height="6" viewBox="0 0 10 6" fill="none" xmlns="http://www.w3.org/2000/svg">
<path d="M5.6 5C5.6 4.66863 5.33137 4.4 5 4.4C4.66863 4.4 4.4 4.66863 4.4 5L5.6 5ZM4.57574 5.52426C4.81005 5.75858 5.18995 5.75858 5.42426 5.52426L9.24264 1.70589C9.47696 1.47157 9.47696 1.09167 9.24264 0.857359C9.00833 0.623045 8.62843 0.623045 8.39411 0.857359L5 4.25147L1.60589 0.857359C1.37157 0.623044 0.991674 0.623044 0.757359 0.857359C0.523045 1.09167 0.523045 1.47157 0.757359 1.70589L4.57574 5.52426ZM4.4 5L4.4 5.1L5.6 5.1L5.6 5L4.4 5Z" fill="#3C3C3C"/>
</svg>
